{"title":"Noah (2014) BDRip 1080p Dual Audio [ Hindi ORG DD 5.1-Eng 5.1] T","uid":10721216,"size":4589493617,"categoryP":"video","categoryS":"hd___movies","magnet":"?xt=urn:btih:7a37344f16f777607b9ea87ab38730dae170ecb6&amp;dn=Noah+%282014%29+BDRip+1080p+Dual+Audio+%5B+Hindi+ORG+DD+5.1-Eng+5.1%5D+T&amp;tr=udp%3A%2F%2Ftracker.openbittorrent.com%3A80&amp;tr=udp%3A%2F%2Fopen.demonii.com%3A1337&amp;tr=udp%3A%2F%2Ftracker.coppersurfer.tk%3A6969&amp;tr=udp%3A%2F%2Fexodus.desync.com%3A6969","seeders":5,"leechers":0,"uploader":"inovai","files":22,"time":1407486466,"description":"*************************************************************************** \nNoah (2014) 720p BluRay x264 [Dual Audio] Org DD 5.1 [Hindi-Eng]~Invincible *************************************************************************** \nCover Image: \n &lt;a href=&quot;\nhttp://forum.primetimeshow.in/viewtopic.php?f=7&amp;t=567&quot; rel=&quot;nofollow&quot; target=&quot;_NEW&quot;&gt;\nhttp://forum.primetimeshow.in/viewtopic.php?f=7&amp;t=567&lt;/a&gt;\n\nScreenshots:\n &lt;a href=&quot;\nhttp://img.primetimeshow.in/share.php?id=D2CB_53E46C69&quot; rel=&quot;nofollow&quot; target=&quot;_NEW&quot;&gt;\nhttp://img.primetimeshow.in/share.php?id=D2CB_53E46C69&lt;/a&gt;\n &lt;a href=&quot;\nhttp://img.primetimeshow.in/share.php?id=08DE_53E46C69&quot; rel=&quot;nofollow&quot; target=&quot;_NEW&quot;&gt;\nhttp://img.primetimeshow.in/share.php?id=08DE_53E46C69&lt;/a&gt;\n &lt;a href=&quot;\nhttp://img.primetimeshow.in/share.php?id=172E_53E46C69&quot; rel=&quot;nofollow&quot; target=&quot;_NEW&quot;&gt;\nhttp://img.primetimeshow.in/share.php?id=172E_53E46C69&lt;/a&gt;\n &lt;a href=&quot;\nhttp://img.primetimeshow.in/share.php?id=7E40_53E46C69&quot; rel=&quot;nofollow&quot; target=&quot;_NEW&quot;&gt;\nhttp://img.primetimeshow.in/share.php?id=7E40_53E46C69&lt;/a&gt;\n\n\nGENERAL INFO:\n\nFormat : Matroska\nFormat version : Version 4 / Version 2\nFile size : 4.20 GiB\nDuration : 2h 12mn\nOverall bit rate : 4 546 Kbps\nMovie name : Noah (2014) BDRip 1080p Dual Audio [ Hindi ORG DD 5.1-Eng 5.1] TQMovies.mkv\n\n============================================================================\n\n:VIDEO INFO:\nID : 1\nFormat : AVC\nFormat/Info : Advanced Video Codec\nFormat profile : &lt;a class=&quot;__cf_email__&quot; href=&quot;/cdn-cgi/l/email-protection&quot; data-cfemail=&quot;2b63424c436b671f051a&quot;&gt;[email&amp;#160;protected]&lt;/a&gt;&lt;script cf-hash='f9e31' type=&quot;text/javascript&quot;&gt;\n/* &lt;![CDATA[ */!function(){try{var t=&quot;currentScript&quot;in document?document.currentScript:function(){for(var t=document.getElementsByTagName(&quot;script&quot;),e=t.length;e--;)if(t[e].getAttribute(&quot;cf-hash&quot;))return t[e]}();if(t&amp;&amp;t.previousSibling){var e,r,n,i,c=t.previousSibling,a=c.getAttribute(&quot;data-cfemail&quot;);if(a){for(e=&quot;&quot;,r=parseInt(a.substr(0,2),16),n=2;a.length-n;n+=2)i=parseInt(a.substr(n,2),16)^r,e+=String.fromCharCode(i);e=document.createTextNode(e),c.parentNode.replaceChild(e,c)}}}catch(u){}}();/* ]]&gt; */&lt;/script&gt;\nFormat settings, CABAC : Yes\nFormat settings, ReFrames : 4 frames\nCodec ID : V_MPEG4/ISO/AVC\nDuration : 2h 12mn\nBit rate : 3 500 Kbps\nWidth : 1 920 pixels\nHeight : 1 040 pixels\nDisplay aspect ratio : 1.85:1\nFrame rate mode : Constant\nFrame rate : 25.000 fps\nOriginal frame rate : 23.976 fps\nDURATION : 02:04:15.520000000\nStream size : 3.29 GiB (78%)\nWriting library : x264 core 138 r2358 9e941d1\nLanguage : English\nDefault : Yes\nForced : No\n\n============================================================================\n\n:AUDIO 1:\nID : 2\nFormat : AC-3\nFormat/Info : Audio Coding 3\nMode extension : CM (complete main)\nFormat settings, Endianness : Big\nCodec ID : A_AC3\nDuration : 2h 12mn\nBit rate mode : Constant\nBit rate : 448 Kbps\nChannel(s) : 6 channels\nChannel positions : Front: L C R, Side: L R, LFE\nSampling rate : 48.0 KHz\nBit depth : 16 bits\nCompression mode : Lossy\nStream size : 424 MiB (10%)\nTitle : Hindi Org DD 5.1 448Kbps\nLanguage : Hindi\nDefault : Yes\nForced : No\n\n============================================================================\n\n:AUDIO 2:\nID : 3\nFormat : AC-3\nFormat/Info : Audio Coding 3\nMode extension : CM (complete main)\nFormat settings, Endianness : Big\nCodec ID : A_AC3\nDuration : 2h 12mn\nBit rate mode : Constant\nBit rate : 448 Kbps\nChannel(s) : 6 channels\nChannel positions : Front: L C R, Side: L R, LFE\nSampling rate : 48.0 KHz\nBit depth : 16 bits\nCompression mode : Lossy\nStream size : 424 MiB (10%)\nTitle : Eng Org DD 5.1 448Kbps\nLanguage : English\nDefault : No\nForced : No\n\n============================================================================\n:SUBTITLE:\nText\nID : 4\nFormat : UTF-8\nCodec ID : S_TEXT/UTF8\nCodec ID/Info : UTF-8 Plain Text\nTitle : English SRT\nLanguage : English\nDefault : Yes\nForced : No\n\n------------------\nThanks to invincible &amp; TQ movies!!\n\nseed n ENjoy!!","torrent":{"xt":"urn:btih:7a37344f16f777607b9ea87ab38730dae170ecb6","amp;dn":"Noah+%282014%29+BDRip+1080p+Dual+Audio+%5B+Hindi+ORG+DD+5.1-Eng+5.1%5D+T","amp;tr":["udp%3A%2F%2Ftracker.openbittorrent.com%3A80","udp%3A%2F%2Fopen.demonii.com%3A1337","udp%3A%2F%2Ftracker.coppersurfer.tk%3A6969","udp%3A%2F%2Fexodus.desync.com%3A6969"],"infoHash":"7a37344f16f777607b9ea87ab38730dae170ecb6","infoHashBuffer":{"type":"Buffer","data":[122,55,52,79,22,247,119,96,123,158,168,122,179,135,48,218,225,112,236,182]},"announce":[],"urlList":[]}}